<?xml version="1.0" encoding="UTF-8" standalone="no"?>
<!DOCTYPE svg PUBLIC "-//W3C//DTD SVG 1.1//EN"
 "http://www.w3.org/Graphics/SVG/1.1/DTD/svg11.dtd">
<!-- Generated by graphviz version 2.26.3 (20100126.1600)
 -->
<!-- Title: Gemfile Pages: 1 -->
<svg width="1426pt" height="408pt"
 viewBox="0.00 0.00 1426.11 408.00" xmlns="http://www.w3.org/2000/svg" xmlns:xlink="http://www.w3.org/1999/xlink">
<g id="graph1" class="graph" transform="scale(1 1) rotate(0) translate(4 404)">
<title>Gemfile</title>
<polygon fill="white" stroke="white" points="-4,5 -4,-404 1423.11,-404 1423.11,5 -4,5"/>
<g id="graph2" class="cluster"><title>cluster_test</title>
<polygon fill="none" stroke="black" points="1092.11,-64 1092.11,-212 1410.11,-212 1410.11,-64 1092.11,-64"/>
<text text-anchor="middle" x="1251.11" y="-195.4" font-family="Helvetica,sans-Serif" font-size="14.00">Group: test</text>
</g>
<!-- rails -->
<g id="node1" class="node"><title>rails</title>
<ellipse fill="#aaaacc" stroke="black" cx="515.105" cy="-382" rx="34.2118" ry="18"/>
<text text-anchor="middle" x="515.105" y="-377.4" font-family="Helvetica,sans-Serif" font-weight="bold" font-size="14.00">rails</text>
</g>
<!-- activesupport -->
<g id="node16" class="node"><title>activesupport</title>
<ellipse fill="none" stroke="black" cx="236.105" cy="-90" rx="75.1319" ry="18"/>
<text text-anchor="middle" x="236.105" y="-85.4" font-family="Helvetica,sans-Serif" font-size="14.00">activesupport</text>
</g>
<!-- rails&#45;&gt;activesupport -->
<g id="edge69" class="edge"><title>rails&#45;&gt;activesupport</title>
<path fill="none" stroke="black" d="M481.443,-379.069C377.437,-369.237 64.7597,-333.582 7.10526,-256 -8.009,-235.662 5.29749,-159.069 19.1053,-144 38.0865,-123.285 104.973,-108.732 159.526,-99.9952"/>
<polygon fill="black" stroke="black" points="160.213,-103.43 169.554,-98.4314 159.134,-96.5141 160.213,-103.43"/>
</g>
<!-- actionpack -->
<g id="node22" class="node"><title>actionpack</title>
<ellipse fill="none" stroke="black" cx="822.105" cy="-238" rx="61.2137" ry="18"/>
<text text-anchor="middle" x="822.105" y="-233.4" font-family="Helvetica,sans-Serif" font-size="14.00">actionpack</text>
</g>
<!-- rails&#45;&gt;actionpack -->
<g id="edge71" class="edge"><title>rails&#45;&gt;actionpack</title>
<path fill="none" stroke="black" d="M540.752,-369.97C593.771,-345.101 715.868,-287.831 780.393,-257.565"/>
<polygon fill="black" stroke="black" points="781.913,-260.718 789.48,-253.303 778.94,-254.381 781.913,-260.718"/>
</g>
<!-- actionmailer -->
<g id="node29" class="node"><title>actionmailer</title>
<ellipse fill="none" stroke="black" cx="515.105" cy="-310" rx="69.0945" ry="18"/>
<text text-anchor="middle" x="515.105" y="-305.4" font-family="Helvetica,sans-Serif" font-size="14.00">actionmailer</text>
</g>
<!-- rails&#45;&gt;actionmailer -->
<g id="edge77" class="edge"><title>rails&#45;&gt;actionmailer</title>
<path fill="none" stroke="black" d="M515.105,-363.831C515.105,-356.131 515.105,-346.974 515.105,-338.417"/>
<polygon fill="black" stroke="black" points="518.605,-338.413 515.105,-328.413 511.605,-338.413 518.605,-338.413"/>
</g>
<!-- activerecord -->
<g id="node31" class="node"><title>activerecord</title>
<ellipse fill="none" stroke="black" cx="86.1053" cy="-238" rx="69.9366" ry="18"/>
<text text-anchor="middle" x="86.1053" y="-233.4" font-family="Helvetica,sans-Serif" font-size="14.00">activerecord</text>
</g>
<!-- rails&#45;&gt;activerecord -->
<g id="edge73" class="edge"><title>rails&#45;&gt;activerecord</title>
<path fill="none" stroke="black" d="M486.291,-372.328C415.056,-348.417 229.84,-286.247 138.541,-255.601"/>
<polygon fill="black" stroke="black" points="139.539,-252.244 128.945,-252.38 137.312,-258.88 139.539,-252.244"/>
</g>
<!-- activeresource -->
<g id="node32" class="node"><title>activeresource</title>
<ellipse fill="none" stroke="black" cx="274.105" cy="-238" rx="79.9985" ry="18"/>
<text text-anchor="middle" x="274.105" y="-233.4" font-family="Helvetica,sans-Serif" font-size="14.00">activeresource</text>
</g>
<!-- rails&#45;&gt;activeresource -->
<g id="edge75" class="edge"><title>rails&#45;&gt;activeresource</title>
<path fill="none" stroke="black" d="M492.433,-368.453C450.76,-343.553 361.638,-290.302 311.092,-260.1"/>
<polygon fill="black" stroke="black" points="312.803,-257.045 302.424,-254.92 309.213,-263.054 312.803,-257.045"/>
</g>
<!-- bundler -->
<g id="node33" class="node"><title>bundler</title>
<ellipse fill="none" stroke="black" cx="998.105" cy="-310" rx="45.1145" ry="18"/>
<text text-anchor="middle" x="998.105" y="-305.4" font-family="Helvetica,sans-Serif" font-size="14.00">bundler</text>
</g>
<!-- rails&#45;&gt;bundler -->
<g id="edge81" class="edge"><title>rails&#45;&gt;bundler</title>
<path fill="none" stroke="black" d="M549.147,-379.995C622.249,-375.193 799.352,-360.899 944.105,-328 947.689,-327.186 951.371,-326.228 955.047,-325.186"/>
<polygon fill="black" stroke="black" points="956.133,-328.514 964.692,-322.271 954.107,-321.813 956.133,-328.514"/>
</g>
<!-- railties -->
<g id="node35" class="node"><title>railties</title>
<ellipse fill="none" stroke="black" cx="892.105" cy="-310" rx="42.9325" ry="18"/>
<text text-anchor="middle" x="892.105" y="-305.4" font-family="Helvetica,sans-Serif" font-size="14.00">railties</text>
</g>
<!-- rails&#45;&gt;railties -->
<g id="edge79" class="edge"><title>rails&#45;&gt;railties</title>
<path fill="none" stroke="black" d="M547.248,-375.861C613.198,-363.266 764.191,-334.429 842.68,-319.439"/>
<polygon fill="black" stroke="black" points="843.633,-322.821 852.799,-317.507 842.32,-315.945 843.633,-322.821"/>
</g>
<!-- pg -->
<g id="node2" class="node"><title>pg</title>
<polygon fill="#aaaacc" stroke="black" points="822.105,-400 768.105,-400 768.105,-364 822.105,-364 822.105,-400"/>
<text text-anchor="middle" x="795.105" y="-377.4" font-family="Helvetica,sans-Serif" font-weight="bold" font-size="14.00">pg</text>
</g>
<!-- haml -->
<g id="node3" class="node"><title>haml</title>
<ellipse fill="#aaaacc" stroke="black" cx="1097.11" cy="-310" rx="36.2243" ry="18"/>
<text text-anchor="middle" x="1097.11" y="-305.4" font-family="Helvetica,sans-Serif" font-weight="bold" font-size="14.00">haml</text>
</g>
<!-- compass -->
<g id="node4" class="node"><title>compass</title>
<ellipse fill="#aaaacc" stroke="black" cx="1097.11" cy="-382" rx="57.1889" ry="18"/>
<text text-anchor="middle" x="1097.11" y="-377.4" font-family="Helvetica,sans-Serif" font-weight="bold" font-size="14.00">compass</text>
</g>
<!-- compass&#45;&gt;haml -->
<g id="edge59" class="edge"><title>compass&#45;&gt;haml</title>
<path fill="none" stroke="black" d="M1097.11,-363.831C1097.11,-356.131 1097.11,-346.974 1097.11,-338.417"/>
<polygon fill="black" stroke="black" points="1100.61,-338.413 1097.11,-328.413 1093.61,-338.413 1100.61,-338.413"/>
</g>
<!-- rspec -->
<g id="node6" class="node"><title>rspec</title>
<ellipse fill="#aaaacc" stroke="black" cx="1334.11" cy="-90" rx="40.2492" ry="18"/>
<text text-anchor="middle" x="1334.11" y="-85.4" font-family="Helvetica,sans-Serif" font-weight="bold" font-size="14.00">rspec</text>
</g>
<!-- rspec&#45;rails -->
<g id="node7" class="node"><title>rspec&#45;rails</title>
<ellipse fill="#aaaacc" stroke="black" cx="1334.11" cy="-162" rx="67.9242" ry="18"/>
<text text-anchor="middle" x="1334.11" y="-157.4" font-family="Helvetica,sans-Serif" font-weight="bold" font-size="14.00">rspec&#45;rails</text>
</g>
<!-- rspec&#45;rails&#45;&gt;rspec -->
<g id="edge3" class="edge"><title>rspec&#45;rails&#45;&gt;rspec</title>
<path fill="none" stroke="black" d="M1334.11,-143.831C1334.11,-136.131 1334.11,-126.974 1334.11,-118.417"/>
<polygon fill="black" stroke="black" points="1337.61,-118.413 1334.11,-108.413 1330.61,-118.413 1337.61,-118.413"/>
</g>
<!-- rack -->
<g id="node19" class="node"><title>rack</title>
<polygon fill="none" stroke="black" points="1061.11,-108 1007.11,-108 1007.11,-72 1061.11,-72 1061.11,-108"/>
<text text-anchor="middle" x="1034.11" y="-85.4" font-family="Helvetica,sans-Serif" font-size="14.00">rack</text>
</g>
<!-- rspec&#45;rails&#45;&gt;rack -->
<g id="edge83" class="edge"><title>rspec&#45;rails&#45;&gt;rack</title>
<path fill="none" stroke="black" d="M1283.19,-149.949C1274.5,-147.933 1265.55,-145.885 1257.11,-144 1182.16,-127.259 1162.2,-128.174 1088.11,-108 1082.42,-106.453 1076.46,-104.652 1070.66,-102.797"/>
<polygon fill="black" stroke="black" points="1071.71,-99.4591 1061.12,-99.6631 1069.53,-106.109 1071.71,-99.4591"/>
</g>
<!-- factory_girl -->
<g id="node8" class="node"><title>factory_girl</title>
<ellipse fill="#aaaacc" stroke="black" cx="1174.11" cy="-162" rx="73.9613" ry="18"/>
<text text-anchor="middle" x="1174.11" y="-157.4" font-family="Helvetica,sans-Serif" font-weight="bold" font-size="14.00">factory_girl</text>
</g>
<!-- rake -->
<g id="node10" class="node"><title>rake</title>
<polygon fill="none" stroke="black" points="1154.11,-256 1100.11,-256 1100.11,-220 1154.11,-220 1154.11,-256"/>
<text text-anchor="middle" x="1127.11" y="-233.4" font-family="Helvetica,sans-Serif" font-size="14.00">rake</text>
</g>
<!-- abstract -->
<g id="node11" class="node"><title>abstract</title>
<polygon fill="none" stroke="black" points="916.105,-108 842.105,-108 842.105,-72 916.105,-72 916.105,-108"/>
<text text-anchor="middle" x="879.105" y="-85.4" font-family="Helvetica,sans-Serif" font-size="14.00">abstract</text>
</g>
<!-- builder -->
<g id="node12" class="node"><title>builder</title>
<polygon fill="none" stroke="black" points="121.105,-36 57.1053,-36 57.1053,-1.77636e-14 121.105,-3.55271e-15 121.105,-36"/>
<text text-anchor="middle" x="89.1053" y="-13.4" font-family="Helvetica,sans-Serif" font-size="14.00">builder</text>
</g>
<!-- i18n -->
<g id="node13" class="node"><title>i18n</title>
<ellipse fill="none" stroke="black" cx="168.105" cy="-18" rx="29.0158" ry="18"/>
<text text-anchor="middle" x="168.105" y="-13.4" font-family="Helvetica,sans-Serif" font-size="14.00">i18n</text>
</g>
<!-- memcache&#45;client -->
<g id="node14" class="node"><title>memcache&#45;client</title>
<ellipse fill="none" stroke="black" cx="305.105" cy="-18" rx="90.0604" ry="18"/>
<text text-anchor="middle" x="305.105" y="-13.4" font-family="Helvetica,sans-Serif" font-size="14.00">memcache&#45;client</text>
</g>
<!-- tzinfo -->
<g id="node15" class="node"><title>tzinfo</title>
<ellipse fill="none" stroke="black" cx="451.105" cy="-18" rx="38.2368" ry="18"/>
<text text-anchor="middle" x="451.105" y="-13.4" font-family="Helvetica,sans-Serif" font-size="14.00">tzinfo</text>
</g>
<!-- activesupport&#45;&gt;builder -->
<g id="edge9" class="edge"><title>activesupport&#45;&gt;builder</title>
<path fill="none" stroke="black" d="M202.749,-73.6621C181.307,-63.1599 153.29,-49.4372 130.439,-38.2453"/>
<polygon fill="black" stroke="black" points="131.84,-35.034 121.32,-33.7784 128.761,-41.3204 131.84,-35.034"/>
</g>
<!-- activesupport&#45;&gt;i18n -->
<g id="edge5" class="edge"><title>activesupport&#45;&gt;i18n</title>
<path fill="none" stroke="black" d="M219.296,-72.2022C210.395,-62.7779 199.362,-51.095 189.819,-40.9915"/>
<polygon fill="black" stroke="black" points="192.284,-38.5038 182.873,-33.6368 187.195,-43.3101 192.284,-38.5038"/>
</g>
<!-- activesupport&#45;&gt;memcache&#45;client -->
<g id="edge11" class="edge"><title>activesupport&#45;&gt;memcache&#45;client</title>
<path fill="none" stroke="black" d="M253.161,-72.2022C261.538,-63.4617 271.776,-52.7786 280.941,-43.2144"/>
<polygon fill="black" stroke="black" points="283.614,-45.4841 288.006,-35.8425 278.56,-40.6408 283.614,-45.4841"/>
</g>
<!-- activesupport&#45;&gt;tzinfo -->
<g id="edge7" class="edge"><title>activesupport&#45;&gt;tzinfo</title>
<path fill="none" stroke="black" d="M282.684,-75.7801C316.531,-65.2645 363.357,-50.3394 404.105,-36 406.682,-35.0931 409.331,-34.1393 411.995,-33.1635"/>
<polygon fill="black" stroke="black" points="413.464,-36.3512 421.612,-29.5783 411.019,-29.7921 413.464,-36.3512"/>
</g>
<!-- activemodel -->
<g id="node17" class="node"><title>activemodel</title>
<ellipse fill="none" stroke="black" cx="188.105" cy="-162" rx="67.7529" ry="18"/>
<text text-anchor="middle" x="188.105" y="-157.4" font-family="Helvetica,sans-Serif" font-size="14.00">activemodel</text>
</g>
<!-- activemodel&#45;&gt;activesupport -->
<g id="edge13" class="edge"><title>activemodel&#45;&gt;activesupport</title>
<path fill="none" stroke="black" d="M199.97,-144.202C205.567,-135.808 212.357,-125.622 218.535,-116.356"/>
<polygon fill="black" stroke="black" points="221.575,-118.105 224.21,-107.843 215.751,-114.222 221.575,-118.105"/>
</g>
<!-- erubis -->
<g id="node18" class="node"><title>erubis</title>
<polygon fill="none" stroke="black" points="908.105,-180 850.105,-180 850.105,-144 908.105,-144 908.105,-180"/>
<text text-anchor="middle" x="879.105" y="-157.4" font-family="Helvetica,sans-Serif" font-size="14.00">erubis</text>
</g>
<!-- erubis&#45;&gt;abstract -->
<g id="edge15" class="edge"><title>erubis&#45;&gt;abstract</title>
<path fill="none" stroke="black" d="M879.105,-143.831C879.105,-136.131 879.105,-126.974 879.105,-118.417"/>
<polygon fill="black" stroke="black" points="882.605,-118.413 879.105,-108.413 875.605,-118.413 882.605,-118.413"/>
</g>
<!-- rack&#45;mount -->
<g id="node20" class="node"><title>rack&#45;mount</title>
<ellipse fill="none" stroke="black" cx="730.105" cy="-162" rx="63.8995" ry="18"/>
<text text-anchor="middle" x="730.105" y="-157.4" font-family="Helvetica,sans-Serif" font-size="14.00">rack&#45;mount</text>
</g>
<!-- rack&#45;test -->
<g id="node21" class="node"><title>rack&#45;test</title>
<polygon fill="none" stroke="black" points="1006.11,-180 926.105,-180 926.105,-144 1006.11,-144 1006.11,-180"/>
<text text-anchor="middle" x="966.105" y="-157.4" font-family="Helvetica,sans-Serif" font-size="14.00">rack&#45;test</text>
</g>
<!-- rack&#45;test&#45;&gt;rack -->
<g id="edge17" class="edge"><title>rack&#45;test&#45;&gt;rack</title>
<path fill="none" stroke="black" d="M983.265,-143.831C991.256,-135.369 1000.91,-125.149 1009.65,-115.897"/>
<polygon fill="black" stroke="black" points="1012.39,-118.087 1016.71,-108.413 1007.3,-113.28 1012.39,-118.087"/>
</g>
<!-- actionpack&#45;&gt;activesupport -->
<g id="edge19" class="edge"><title>actionpack&#45;&gt;activesupport</title>
<path fill="none" stroke="black" d="M824.234,-219.716C825.615,-198.178 824.137,-162.942 803.105,-144 798.628,-139.968 472.092,-110.756 316.653,-97.0565"/>
<polygon fill="black" stroke="black" points="316.936,-93.5679 306.668,-96.177 316.322,-100.541 316.936,-93.5679"/>
</g>
<!-- actionpack&#45;&gt;activemodel -->
<g id="edge21" class="edge"><title>actionpack&#45;&gt;activemodel</title>
<path fill="none" stroke="black" d="M762.93,-233.487C708.051,-229.44 624.103,-223.601 551.105,-220 496.032,-217.284 356.902,-224.097 303.105,-212 276.342,-205.982 248.066,-193.775 226.249,-182.93"/>
<polygon fill="black" stroke="black" points="227.817,-179.801 217.317,-178.388 224.644,-186.041 227.817,-179.801"/>
</g>
<!-- actionpack&#45;&gt;erubis -->
<g id="edge29" class="edge"><title>actionpack&#45;&gt;erubis</title>
<path fill="none" stroke="black" d="M835.325,-220.373C842.488,-210.823 851.478,-198.836 859.445,-188.213"/>
<polygon fill="black" stroke="black" points="862.361,-190.159 865.561,-180.059 856.761,-185.959 862.361,-190.159"/>
</g>
<!-- actionpack&#45;&gt;rack -->
<g id="edge23" class="edge"><title>actionpack&#45;&gt;rack</title>
<path fill="none" stroke="black" d="M881.359,-233.574C934.509,-229.035 1005.58,-221.331 1015.11,-212 1039.57,-188.031 1040.9,-146.453 1038.44,-118.586"/>
<polygon fill="black" stroke="black" points="1041.88,-117.844 1037.31,-108.287 1034.92,-118.61 1041.88,-117.844"/>
</g>
<!-- actionpack&#45;&gt;rack&#45;mount -->
<g id="edge27" class="edge"><title>actionpack&#45;&gt;rack&#45;mount</title>
<path fill="none" stroke="black" d="M801.229,-220.754C788.643,-210.357 772.437,-196.97 758.674,-185.6"/>
<polygon fill="black" stroke="black" points="760.838,-182.848 750.899,-179.177 756.379,-188.245 760.838,-182.848"/>
</g>
<!-- actionpack&#45;&gt;rack&#45;test -->
<g id="edge25" class="edge"><title>actionpack&#45;&gt;rack&#45;test</title>
<path fill="none" stroke="black" d="M874.878,-228.822C889.199,-224.955 904.28,-219.538 917.105,-212 927.803,-205.713 937.761,-196.488 945.869,-187.669"/>
<polygon fill="black" stroke="black" points="948.535,-189.937 952.489,-180.107 943.268,-185.326 948.535,-189.937"/>
</g>
<!-- mime&#45;types -->
<g id="node23" class="node"><title>mime&#45;types</title>
<polygon fill="none" stroke="black" points="648.105,-180 552.105,-180 552.105,-144 648.105,-144 648.105,-180"/>
<text text-anchor="middle" x="600.105" y="-157.4" font-family="Helvetica,sans-Serif" font-size="14.00">mime&#45;types</text>
</g>
<!-- polyglot -->
<g id="node24" class="node"><title>polyglot</title>
<polygon fill="none" stroke="black" points="536.105,-108 464.105,-108 464.105,-72 536.105,-72 536.105,-108"/>
<text text-anchor="middle" x="500.105" y="-85.4" font-family="Helvetica,sans-Serif" font-size="14.00">polyglot</text>
</g>
<!-- treetop -->
<g id="node25" class="node"><title>treetop</title>
<polygon fill="none" stroke="black" points="534.105,-180 466.105,-180 466.105,-144 534.105,-144 534.105,-180"/>
<text text-anchor="middle" x="500.105" y="-157.4" font-family="Helvetica,sans-Serif" font-size="14.00">treetop</text>
</g>
<!-- treetop&#45;&gt;polyglot -->
<g id="edge31" class="edge"><title>treetop&#45;&gt;polyglot</title>
<path fill="none" stroke="black" d="M500.105,-143.831C500.105,-136.131 500.105,-126.974 500.105,-118.417"/>
<polygon fill="black" stroke="black" points="503.605,-118.413 500.105,-108.413 496.605,-118.413 503.605,-118.413"/>
</g>
<!-- mail -->
<g id="node26" class="node"><title>mail</title>
<polygon fill="none" stroke="black" points="542.105,-256 488.105,-256 488.105,-220 542.105,-220 542.105,-256"/>
<text text-anchor="middle" x="515.105" y="-233.4" font-family="Helvetica,sans-Serif" font-size="14.00">mail</text>
</g>
<!-- mail&#45;&gt;activesupport -->
<g id="edge33" class="edge"><title>mail&#45;&gt;activesupport</title>
<path fill="none" stroke="black" d="M487.741,-223.912C484.847,-222.544 481.93,-221.215 479.105,-220 469.548,-215.889 465.029,-218.742 457.105,-212 430.737,-189.565 446.154,-165.609 419.105,-144 389.426,-120.289 349.614,-106.985 314.703,-99.5224"/>
<polygon fill="black" stroke="black" points="315.016,-96.0154 304.523,-97.4788 313.638,-102.879 315.016,-96.0154"/>
</g>
<!-- mail&#45;&gt;mime&#45;types -->
<g id="edge35" class="edge"><title>mail&#45;&gt;mime&#45;types</title>
<path fill="none" stroke="black" d="M535.249,-219.989C546.284,-210.123 560.129,-197.744 572.19,-186.959"/>
<polygon fill="black" stroke="black" points="574.69,-189.42 579.811,-180.145 570.024,-184.201 574.69,-189.42"/>
</g>
<!-- mail&#45;&gt;treetop -->
<g id="edge37" class="edge"><title>mail&#45;&gt;treetop</title>
<path fill="none" stroke="black" d="M511.55,-219.989C509.789,-211.063 507.621,-200.079 505.647,-190.08"/>
<polygon fill="black" stroke="black" points="509.057,-189.278 503.687,-180.145 502.189,-190.634 509.057,-189.278"/>
</g>
<!-- text&#45;hyphen -->
<g id="node27" class="node"><title>text&#45;hyphen</title>
<polygon fill="none" stroke="black" points="410.105,-180 312.105,-180 312.105,-144 410.105,-144 410.105,-180"/>
<text text-anchor="middle" x="361.105" y="-157.4" font-family="Helvetica,sans-Serif" font-size="14.00">text&#45;hyphen</text>
</g>
<!-- text&#45;format -->
<g id="node28" class="node"><title>text&#45;format</title>
<polygon fill="none" stroke="black" points="470.105,-256 372.105,-256 372.105,-220 470.105,-220 470.105,-256"/>
<text text-anchor="middle" x="421.105" y="-233.4" font-family="Helvetica,sans-Serif" font-size="14.00">text&#45;format</text>
</g>
<!-- text&#45;format&#45;&gt;text&#45;hyphen -->
<g id="edge39" class="edge"><title>text&#45;format&#45;&gt;text&#45;hyphen</title>
<path fill="none" stroke="black" d="M406.886,-219.989C399.394,-210.499 390.066,-198.683 381.788,-188.198"/>
<polygon fill="black" stroke="black" points="384.374,-185.825 375.43,-180.145 378.88,-190.163 384.374,-185.825"/>
</g>
<!-- actionmailer&#45;&gt;actionpack -->
<g id="edge41" class="edge"><title>actionmailer&#45;&gt;actionpack</title>
<path fill="none" stroke="black" d="M566.49,-297.949C621.158,-285.128 707.452,-264.889 764.415,-251.53"/>
<polygon fill="black" stroke="black" points="765.409,-254.892 774.345,-249.201 763.81,-248.077 765.409,-254.892"/>
</g>
<!-- actionmailer&#45;&gt;mail -->
<g id="edge43" class="edge"><title>actionmailer&#45;&gt;mail</title>
<path fill="none" stroke="black" d="M515.105,-291.831C515.105,-284.131 515.105,-274.974 515.105,-266.417"/>
<polygon fill="black" stroke="black" points="518.605,-266.413 515.105,-256.413 511.605,-266.413 518.605,-266.413"/>
</g>
<!-- actionmailer&#45;&gt;text&#45;format -->
<g id="edge45" class="edge"><title>actionmailer&#45;&gt;text&#45;format</title>
<path fill="none" stroke="black" d="M492.829,-292.937C480.982,-283.863 466.206,-272.545 453.149,-262.544"/>
<polygon fill="black" stroke="black" points="454.932,-259.501 444.865,-256.199 450.676,-265.059 454.932,-259.501"/>
</g>
<!-- arel -->
<g id="node30" class="node"><title>arel</title>
<ellipse fill="none" stroke="black" cx="73.1053" cy="-162" rx="28.8453" ry="18"/>
<text text-anchor="middle" x="73.1053" y="-157.4" font-family="Helvetica,sans-Serif" font-size="14.00">arel</text>
</g>
<!-- arel&#45;&gt;activesupport -->
<g id="edge47" class="edge"><title>arel&#45;&gt;activesupport</title>
<path fill="none" stroke="black" d="M96.3577,-150.83C101.216,-148.54 106.317,-146.168 111.105,-144 136.848,-132.347 165.802,-119.803 189.358,-109.741"/>
<polygon fill="black" stroke="black" points="190.937,-112.873 198.764,-105.732 188.192,-106.433 190.937,-112.873"/>
</g>
<!-- activerecord&#45;&gt;activesupport -->
<g id="edge49" class="edge"><title>activerecord&#45;&gt;activesupport</title>
<path fill="none" stroke="black" d="M45.7063,-223.177C41.5123,-220.096 37.805,-216.407 35.1053,-212 19.317,-186.23 16.715,-167.983 35.1053,-144 50.668,-123.704 110.482,-109.342 160.848,-100.558"/>
<polygon fill="black" stroke="black" points="161.505,-103.997 170.779,-98.8753 160.335,-97.095 161.505,-103.997"/>
</g>
<!-- activerecord&#45;&gt;activemodel -->
<g id="edge51" class="edge"><title>activerecord&#45;&gt;activemodel</title>
<path fill="none" stroke="black" d="M108.996,-220.944C123.17,-210.383 141.556,-196.684 157.035,-185.15"/>
<polygon fill="black" stroke="black" points="159.363,-187.78 165.291,-178.999 155.181,-182.167 159.363,-187.78"/>
</g>
<!-- activerecord&#45;&gt;arel -->
<g id="edge53" class="edge"><title>activerecord&#45;&gt;arel</title>
<path fill="none" stroke="black" d="M83.0244,-219.989C81.4975,-211.063 79.6188,-200.079 77.9085,-190.08"/>
<polygon fill="black" stroke="black" points="81.345,-189.412 76.209,-180.145 74.4452,-190.592 81.345,-189.412"/>
</g>
<!-- activeresource&#45;&gt;activesupport -->
<g id="edge55" class="edge"><title>activeresource&#45;&gt;activesupport</title>
<path fill="none" stroke="black" d="M274.472,-219.922C274.383,-200.69 272.853,-169.575 265.105,-144 262.326,-134.825 257.911,-125.419 253.356,-117.082"/>
<polygon fill="black" stroke="black" points="256.259,-115.11 248.233,-108.193 250.194,-118.604 256.259,-115.11"/>
</g>
<!-- activeresource&#45;&gt;activemodel -->
<g id="edge57" class="edge"><title>activeresource&#45;&gt;activemodel</title>
<path fill="none" stroke="black" d="M254.159,-220.373C242.571,-210.133 227.812,-197.09 215.186,-185.932"/>
<polygon fill="black" stroke="black" points="217.458,-183.269 207.647,-179.269 212.822,-188.514 217.458,-183.269"/>
</g>
<!-- thor -->
<g id="node34" class="node"><title>thor</title>
<ellipse fill="none" stroke="black" cx="1203.11" cy="-238" rx="30.8577" ry="18"/>
<text text-anchor="middle" x="1203.11" y="-233.4" font-family="Helvetica,sans-Serif" font-size="14.00">thor</text>
</g>
<!-- railties&#45;&gt;rake -->
<g id="edge61" class="edge"><title>railties&#45;&gt;rake</title>
<path fill="none" stroke="black" d="M924.7,-298.243C931.102,-296.069 937.79,-293.89 944.105,-292 1006.48,-273.334 1024.53,-277.159 1086.11,-256 1087.53,-255.511 1088.97,-254.992 1090.43,-254.452"/>
<polygon fill="black" stroke="black" points="1092.01,-257.59 1100.01,-250.646 1089.42,-251.084 1092.01,-257.59"/>
</g>
<!-- railties&#45;&gt;activesupport -->
<g id="edge65" class="edge"><title>railties&#45;&gt;activesupport</title>
<path fill="none" stroke="black" d="M921.086,-296.614C950.93,-281.037 995.727,-252.216 1015.11,-212 1028.22,-184.774 1035.78,-166.045 1015.11,-144 972.454,-98.5192 517.289,-112.554 455.105,-108 409.412,-104.654 358.392,-100.486 317.1,-97.0032"/>
<polygon fill="black" stroke="black" points="317.353,-93.5122 307.093,-96.1567 316.763,-100.487 317.353,-93.5122"/>
</g>
<!-- railties&#45;&gt;actionpack -->
<g id="edge67" class="edge"><title>railties&#45;&gt;actionpack</title>
<path fill="none" stroke="black" d="M875.87,-293.301C867.116,-284.297 856.138,-273.005 846.388,-262.977"/>
<polygon fill="black" stroke="black" points="848.709,-260.343 839.229,-255.613 843.691,-265.223 848.709,-260.343"/>
</g>
<!-- railties&#45;&gt;thor -->
<g id="edge63" class="edge"><title>railties&#45;&gt;thor</title>
<path fill="none" stroke="black" d="M924.301,-297.902C930.797,-295.732 937.623,-293.642 944.105,-292 1039.72,-267.779 1068.67,-284.479 1163.11,-256 1165.38,-255.314 1167.7,-254.527 1170.01,-253.675"/>
<polygon fill="black" stroke="black" points="1171.42,-256.88 1179.38,-249.89 1168.8,-250.389 1171.42,-256.88"/>
</g>
</g>
</svg>
